<?xml version="1.0"?><svg width="1024" height="768" xmlns="http://www.w3.org/2000/svg">
 <metadata id="metadata7">image/svg+xml</metadata>
 <g>
  <title>Layer 1</title>
  <g externalResourcesRequired="false" id="layer1">
   <path fill="#d7e6f4" fill-rule="nonzero" stroke="#cbe0f4" stroke-width="4" stroke-linecap="round" stroke-linejoin="round" stroke-miterlimit="5" id="path3202" d="m311.37323,232.063812c-25.80188,0 -46.896393,14.138321 -48.415253,31.951385c-4.244324,-2.260986 -9.523621,-3.615875 -15.262695,-3.615875c-13.951691,0 -25.271027,7.931213 -25.271011,17.706909c0,9.622894 10.963608,17.442291 24.614212,17.685028c-1.543915,2.871521 -2.376984,5.999542 -2.376984,9.247925c0,14.468048 16.757568,26.209778 37.406097,26.209778c10.276489,0 19.57135,-2.920837 26.334412,-7.626221c8.607269,4.759552 19.468262,7.626221 31.276001,7.626221c23.091797,0 42.598694,-10.876892 48.634155,-25.705719c5.911621,13.237976 23.547211,22.856842 44.380646,22.856842c25.671143,0 46.507416,-14.599609 46.507416,-32.586884c0,-17.987335 -20.836273,-32.586945 -46.507416,-32.586945c-0.274506,0 -0.539764,0.018616 -0.813171,0.021912c-3.738159,-12.939438 -20.062531,-22.681534 -39.626678,-22.681534c-14.9953,0 -28.077637,5.74263 -35.060425,14.244461c-6.632385,-13.246277 -24.658051,-22.747284 -45.819305,-22.747284z"/>
   <path fill="#d7e6f4" fill-rule="nonzero" stroke="#cbe0f4" stroke-width="4" stroke-linecap="round" stroke-linejoin="round" stroke-miterlimit="5" id="path3235" d="m636.609558,149.629837c-21.052734,0 -38.89447,10.189545 -45.065369,24.296188c-3.780151,-7.071487 -13.067688,-12.065262 -23.935059,-12.065262c-14.217102,0 -25.783508,8.561981 -25.783569,19.115189c0,1.088181 0.146851,2.15509 0.382446,3.193771c-16.102173,6.055099 -27.153931,18.434799 -27.153931,32.741898c0,20.262115 22.166809,36.716339 49.463623,36.716339c16.568848,0 31.214233,-6.083588 40.189148,-15.377319c0.898438,0.04924 1.795532,0.065247 2.709045,0.070969c4.828552,11.515594 19.332397,19.89592 36.428406,19.89592c13.900024,0 26.039795,-5.534592 32.699524,-13.792313c0.42572,0.007751 0.846619,0.023666 1.274841,0.023666c28.434143,0 51.535217,-17.124054 51.535217,-38.230423c0,-21.003159 -22.878479,-38.087646 -51.120911,-38.254105c-8.044495,-10.924316 -23.679749,-18.334518 -41.623413,-18.334518z"/>
   <path fill="#d7e6f4" fill-rule="nonzero" stroke="#cbe0f4" stroke-width="4" stroke-linecap="round" stroke-linejoin="round" stroke-miterlimit="5" id="path3247" d="m90.006241,102.62207c-20.648529,0 -37.406101,11.74173 -37.406101,26.209793c0,8.83934 6.24955,16.64035 15.825649,21.388565c-3.563332,3.052643 -5.723511,6.950027 -5.723511,11.198318c0,9.775711 11.319313,17.70694 25.271019,17.706955c7.023392,0 13.370483,-2.015472 17.952423,-5.259506c8.474007,9.936264 23.981262,16.589325 41.690903,16.589325c16.863358,0 31.741531,-6.031052 40.439865,-15.186783c2.572845,0.444702 5.233475,0.720108 7.944107,0.876587c7.370682,6.959793 19.185806,11.483215 32.495773,11.483215c10.415985,0 19.944946,-2.760117 27.116302,-7.297546c6.88797,2.82695 14.903168,4.448654 23.457001,4.448654c25.671112,0 46.476105,-14.599625 46.476135,-32.586914c0,-17.987289 -20.804993,-32.56498 -46.476135,-32.56498c-12.200256,0 -23.321899,3.286919 -31.620056,8.678154c-7.242035,-13.353073 -25.67038,-22.856857 -47.258041,-22.856857c-18.620667,0 -34.890518,7.06366 -43.661301,17.575439c-2.888718,-0.376122 -5.870132,-0.569771 -8.913651,-0.569771c-7.326019,0 -14.256195,1.138115 -20.485779,3.177605c-2.257896,-12.958084 -18.024445,-23.010239 -37.124603,-23.010254z"/>
   <path fill="#d7e6f4" fill-rule="nonzero" stroke="#cbe0f4" stroke-width="4" stroke-linecap="round" stroke-linejoin="round" stroke-miterlimit="5" id="path3259" d="m831.786804,256.246124c-20.648499,0 -37.406067,11.741699 -37.406067,26.209747c0,2.497742 0.505981,4.921051 1.43866,7.2099c-25.866577,1.549255 -46.194641,16.759186 -46.194641,35.28241c0,19.551422 22.638611,35.413879 50.541992,35.413879c7.406738,0 14.426575,-1.12558 20.767273,-3.133789c3.20166,7.207581 12.809265,12.447449 24.145081,12.447449c13.536926,0 24.593933,-7.478607 25.239746,-16.852264c4.951294,1.260101 10.286682,1.950409 15.856873,1.950409c14.392639,0 27.247131,-4.588043 35.779724,-11.790039c6.576477,3.243286 14.590698,5.149902 23.238098,5.149902c22.322632,0 40.43988,-12.694336 40.43988,-28.33548c0,-15.641144 -18.117249,-28.33548 -40.43988,-28.33548c-4.558716,0 -8.921387,0.536285 -13.010803,1.512085c-6.659485,-13.211304 -24.631165,-22.703461 -45.756775,-22.70343c-6.987427,0 -13.637024,1.049286 -19.641296,2.914612c-5.350037,-9.89389 -19.010071,-16.939911 -34.997864,-16.939911z"/>
   <path id="svg_1" fill="#d7e6f4" fill-rule="nonzero" stroke="#cbe0f4" stroke-width="4" stroke-linecap="round" stroke-linejoin="round" stroke-miterlimit="5" d="m434.157715,8.285202c-20.648499,0 -37.406067,11.741699 -37.406067,26.209747c0,2.497742 0.505981,4.921051 1.43866,7.2099c-25.866577,1.549255 -46.194641,16.759186 -46.194641,35.28241c0,19.551422 22.638611,35.413879 50.541992,35.413879c7.406738,0 14.426575,-1.12558 20.767273,-3.133789c3.20166,7.207581 12.809265,12.447449 24.145081,12.447449c13.536926,0 24.593933,-7.478607 25.239746,-16.852264c4.951294,1.260101 10.286682,1.950409 15.856873,1.950409c14.392639,0 27.247131,-4.588043 35.779724,-11.790039c6.576477,3.243286 14.590698,5.149902 23.238098,5.149902c22.322632,0 40.43988,-12.694336 40.43988,-28.33548c0,-15.641144 -18.117249,-28.33548 -40.43988,-28.33548c-4.558716,0 -8.921387,0.536285 -13.010803,1.512085c-6.659485,-13.211304 -24.631165,-22.703461 -45.756775,-22.70343c-6.987427,0 -13.637024,1.049286 -19.641296,2.914612c-5.350037,-9.89389 -19.010071,-16.939911 -34.997864,-16.939911z"/>
  </g>
 </g>
</svg>